# xmcd CD database file
#
# Track frame offsets:
#	150
#	16471
#	34583
#	53297
#	74228
#	91522
#	105808
#	123828
#	134996
#	149161
#	163087
#	182376
#	194741
#	220239
#	242314
#	266808
#	284018
#	298184
#
# Disc length: 4177 seconds
#
# Revision: 0
# Processed by: cddbd v1.5.1PL0 Copyright (c) Steve Scherf et al.
# Submitted via: CDex 1.51
#
DISCID=16104f12
DTITLE=Nina Simone - Legend: The Essential Nina Simone
DYEAR=2005
DGENRE=Jazz
TTITLE0=My Baby Just Cares For Me
TTITLE1=Mood Indigo
TTITLE2=I Loves You Porgy
TTITLE3=Ain't Got No - I Got Life [Live]
TTITLE4=Please Don't Let Me Be Understood [Live]
TTITLE5=Don't Smoke In Bed
TTITLE6=For All We Know
TTITLE7=He Needs Me
TTITLE8=African Mailman
TTITLE9=Central Park Blues
TTITLE10=Little Girl Blue
TTITLE11=Ain't No Use [Live]
TTITLE12=After You've Gone [Live]
TTITLE13=Four Women [Live]
TTITLE14=Good Bait
TTITLE15=Plain Gold Ring
TTITLE16=He's Got The Whole World In His Hands
TTITLE17=Love Me Or Leave Me
EXTD=YEAR: 2005
EXTT0=
EXTT1=
EXTT2=
EXTT3=
EXTT4=
EXTT5=
EXTT6=
EXTT7=
EXTT8=
EXTT9=
EXTT10=
EXTT11=
EXTT12=
EXTT13=
EXTT14=
EXTT15=
EXTT16=
EXTT17=
PLAYORDER=
